Coordinates
version=1
nRows=32
nColumns=12
inDegrees=yes

Units are S.I. units (second, meters, Newtons, ...)
Angles are in degrees

endheader
time	SC_y	SC_z	SC_x	AC_y	AC_z	AC_x	GH_y	GH_z	GH_yy	EL_x	PS_y
       0.0              -56.38         -4.442          33.52          31.08         -16.73         -3.829         -160.6          64.86          116.4          10.49           82.9
   0.04084              -56.38         -4.437          33.52          31.08         -16.73         -3.829         -160.6          64.85          116.4          10.51          82.89
   0.08169              -56.37         -4.432          33.52          31.08         -16.72         -3.829         -160.6          64.84          116.4          10.53          82.88
    0.1225              -56.37         -4.426          33.52          31.09         -16.72         -3.829         -160.6          64.83          116.4          10.55          82.87
    0.1634              -56.36          -4.42          33.52          31.09         -16.72         -3.828         -160.6          64.81          116.4          10.57          82.86
    0.2042              -56.36         -4.413          33.52          31.09         -16.71         -3.828         -160.6           64.8          116.3           10.6          82.84
    0.2451              -56.35         -4.406          33.51          31.09         -16.71         -3.828         -160.6          64.78          116.3          10.62          82.83
    0.2859              -56.34         -4.398          33.51           31.1         -16.71         -3.827         -160.6          64.77          116.3          10.65          82.82
    0.3268              -56.34          -4.39          33.51           31.1          -16.7         -3.827         -160.6          64.75          116.3          10.68           82.8
    0.3676              -56.33         -4.381          33.51           31.1          -16.7         -3.827         -160.6          64.73          116.3          10.71          82.78
    0.4084              -56.32         -4.372          33.51          31.11         -16.69         -3.826         -160.6          64.72          116.3          10.74          82.76
    0.4493              -56.32         -4.362           33.5          31.11         -16.69         -3.826         -160.6           64.7          116.3          10.78          82.74
    0.4901              -56.31         -4.351           33.5          31.11         -16.68         -3.825         -160.6          64.67          116.3          10.82          82.72
     0.531               -56.3          -4.34           33.5          31.12         -16.68         -3.825         -160.5          64.65          116.3          10.86           82.7
    0.5718              -56.29         -4.327          33.49          31.12         -16.67         -3.824         -160.5          64.62          116.3          10.91          82.68
    0.6127              -56.28         -4.313          33.49          31.13         -16.67         -3.823         -160.5          64.59          116.3          10.96          82.65
    0.6535              -56.26         -4.298          33.49          31.13         -16.66         -3.823         -160.5          64.56          116.3          11.01          82.62
    0.6944              -56.25         -4.282          33.48          31.14         -16.65         -3.822         -160.5          64.53          116.2          11.07          82.59
    0.7352              -56.24         -4.264          33.48          31.15         -16.64         -3.821         -160.5          64.49          116.2          11.13          82.55
    0.7761              -56.22         -4.245          33.47          31.15         -16.63          -3.82         -160.5          64.45          116.2          11.21          82.51
    0.8169              -56.21         -4.224          33.47          31.16         -16.62         -3.819         -160.5          64.41          116.2          11.28          82.47
    0.8577              -56.19           -4.2          33.46          31.17         -16.61         -3.818         -160.4          64.36          116.2          11.37          82.43
    0.8986              -56.17         -4.174          33.45          31.18          -16.6         -3.817         -160.4          64.31          116.2          11.46          82.37
    0.9394              -56.14         -4.145          33.44          31.19         -16.59         -3.816         -160.4          64.25          116.1          11.57          82.32
    0.9803              -56.12         -4.113          33.44           31.2         -16.57         -3.814         -160.4          64.19          116.1          11.68          82.26
     1.021              -56.09         -4.078          33.43          31.22         -16.55         -3.813         -160.4          64.11          116.1          11.81          82.18
     1.062              -56.06         -4.038          33.42          31.23         -16.53         -3.811         -160.3          64.03          116.1          11.96          82.11
     1.103              -56.02         -3.993           33.4          31.25         -16.51         -3.809         -160.3          63.94          116.0          12.12          82.02
     1.144              -55.98         -3.942          33.39          31.27         -16.49         -3.807         -160.3          63.83          116.0           12.3          81.92
     1.185              -55.93         -3.885          33.38          31.29         -16.46         -3.804         -160.2          63.72          115.9          12.51           81.8
     1.225              -55.88         -3.819          33.36          31.31         -16.43         -3.801         -160.2          63.58          115.9          12.75          81.67
     1.266              -55.82         -3.743          33.34          31.34         -16.39         -3.798         -160.1          63.43          115.8          13.03          81.53
